# xmcd
#
# Track frame offsets: 
#        150
#        10557
#        22852
#        34645
#        53520
#        72152
#        90117
#        109510
#        124750
#        136492
#        148255
#        159320
#        171022
#        187882
#        199402
#        212502
#        236817
#        249172
#        260652
#        275567
#        287197
#
# Disc length: 4241 seconds
#
# Revision: 3
# Processed by: cddbd v1.5.2PL0 Copyright (c) Steve Scherf et al.
# Submitted via: ExactAudioCopy v1.1
#
DISCID=1c108f15
DTITLE=Mose Allison - I Don't Worry About A Thing - Mose Alive
DYEAR=1999
DGENRE=Jazz
TTITLE0=I Don't Worry About A Thing (stereo)
TTITLE1=It Didn't Turn Out That Way (stereo)
TTITLE2=Your Mind Is On Vacation (stereo)
TTITLE3=Let Me See (stereo)
TTITLE4=Everything I Have Is Yours (stereo)
TTITLE5=Stand By (stereo)
TTITLE6=Idyll (stereo)
TTITLE7=The Well (stereo)
TTITLE8=Meet Me At No Special Place (stereo)
TTITLE9=The Song Is Ended (stereo)
TTITLE10=Smashed (live) (stereo)
TTITLE11=Seventh Son (live) (stereo)
TTITLE12=Fool's Paradise (live) (stereo)
TTITLE13=I Love The Life I Live (live) (stereo)
TTITLE14=Since I Fell For You (live) (stereo)
TTITLE15=Love For Sale (live) (stereo)
TTITLE16=Baby Please Don't Go (live) (stereo)
TTITLE17=That's Alright (live) (stereo)
TTITLE18=Parchman Farm (live) (stereo)
TTITLE19=Tell Me Somethin' (live) (stereo)
TTITLE20=The Chaser (live) (stereo)
EXTD=
EXTT0=
EXTT1=
EXTT2=
EXTT3=
EXTT4=
EXTT5=
EXTT6=
EXTT7=
EXTT8=
EXTT9=
EXTT10=
EXTT11=
EXTT12=
EXTT13=
EXTT14=
EXTT15=
EXTT16=
EXTT17=
EXTT18=
EXTT19=
EXTT20=
PLAYORDER=
